<svg width="1035" height="667" viewBox="0 0 1035 667" fill="none" xmlns="http://www.w3.org/2000/svg">
<g clip-path="url(#clip0_39_90)">
<path d="M426.75 115V69.3125H436.438V115H426.75ZM474.25 115H447.938V69.3125H474.25V77.25H457.625V87.2812H473.094V95.2188H457.625V107H474.25V115ZM510.125 115H483.812V69.3125H510.125V77.25H493.5V87.2812H508.969V95.2188H493.5V107H510.125V115ZM546 115H519.688V69.3125H546V77.25H529.375V87.2812H544.844V95.2188H529.375V107H546V115Z" fill="black"/>
<path d="M424.734 150.578C421.953 150.578 419.484 151.125 417.328 152.219C415.203 153.281 413.406 154.828 411.938 156.859C410.5 158.891 409.406 161.344 408.656 164.219C407.906 167.094 407.531 170.328 407.531 173.922C407.531 178.766 408.125 182.906 409.312 186.344C410.531 189.75 412.406 192.359 414.938 194.172C417.469 195.953 420.734 196.844 424.734 196.844C427.516 196.844 430.297 196.531 433.078 195.906C435.891 195.281 438.938 194.391 442.219 193.234V205.422C439.188 206.672 436.203 207.562 433.266 208.094C430.328 208.656 427.031 208.938 423.375 208.938C416.312 208.938 410.5 207.484 405.938 204.578C401.406 201.641 398.047 197.547 395.859 192.297C393.672 187.016 392.578 180.859 392.578 173.828C392.578 168.641 393.281 163.891 394.688 159.578C396.094 155.266 398.156 151.531 400.875 148.375C403.594 145.219 406.953 142.781 410.953 141.062C414.953 139.344 419.547 138.484 424.734 138.484C428.141 138.484 431.547 138.922 434.953 139.797C438.391 140.641 441.672 141.812 444.797 143.312L440.109 155.125C437.547 153.906 434.969 152.844 432.375 151.938C429.781 151.031 427.234 150.578 424.734 150.578ZM519.047 173.641C519.047 178.922 518.391 183.734 517.078 188.078C515.766 192.391 513.766 196.109 511.078 199.234C508.422 202.359 505.047 204.766 500.953 206.453C496.859 208.109 492.016 208.938 486.422 208.938C480.828 208.938 475.984 208.109 471.891 206.453C467.797 204.766 464.406 202.359 461.719 199.234C459.062 196.109 457.078 192.375 455.766 188.031C454.453 183.688 453.797 178.859 453.797 173.547C453.797 166.453 454.953 160.281 457.266 155.031C459.609 149.75 463.203 145.656 468.047 142.75C472.891 139.844 479.047 138.391 486.516 138.391C493.953 138.391 500.062 139.844 504.844 142.75C509.656 145.656 513.219 149.75 515.531 155.031C517.875 160.312 519.047 166.516 519.047 173.641ZM469.031 173.641C469.031 178.422 469.625 182.547 470.812 186.016C472.031 189.453 473.922 192.109 476.484 193.984C479.047 195.828 482.359 196.75 486.422 196.75C490.547 196.75 493.891 195.828 496.453 193.984C499.016 192.109 500.875 189.453 502.031 186.016C503.219 182.547 503.812 178.422 503.812 173.641C503.812 166.453 502.469 160.797 499.781 156.672C497.094 152.547 492.672 150.484 486.516 150.484C482.422 150.484 479.078 151.422 476.484 153.297C473.922 155.141 472.031 157.797 470.812 161.266C469.625 164.703 469.031 168.828 469.031 173.641ZM562.266 208L545.766 154.234H545.344C545.406 155.516 545.5 157.453 545.625 160.047C545.781 162.609 545.922 165.344 546.047 168.25C546.172 171.156 546.234 173.781 546.234 176.125V208H533.25V139.469H553.031L569.25 191.875H569.531L586.734 139.469H606.516V208H592.969V175.562C592.969 173.406 593 170.922 593.062 168.109C593.156 165.297 593.266 162.625 593.391 160.094C593.516 157.531 593.609 155.609 593.672 154.328H593.25L575.578 208H562.266ZM645.703 139.469C654.547 139.469 661 141.375 665.062 145.188C669.125 148.969 671.156 154.188 671.156 160.844C671.156 163.844 670.703 166.719 669.797 169.469C668.891 172.188 667.406 174.609 665.344 176.734C663.312 178.859 660.594 180.547 657.188 181.797C653.781 183.016 649.578 183.625 644.578 183.625H638.344V208H623.812V139.469H645.703ZM644.953 151.375H638.344V171.719H643.125C645.844 171.719 648.203 171.359 650.203 170.641C652.203 169.922 653.75 168.797 654.844 167.266C655.938 165.734 656.484 163.766 656.484 161.359C656.484 157.984 655.547 155.484 653.672 153.859C651.797 152.203 648.891 151.375 644.953 151.375ZM739.875 139.469V183.812C739.875 188.531 738.828 192.797 736.734 196.609C734.672 200.391 731.531 203.391 727.312 205.609C723.125 207.828 717.844 208.938 711.469 208.938C702.406 208.938 695.5 206.625 690.75 202C686 197.375 683.625 191.25 683.625 183.625V139.469H698.109V181.422C698.109 187.078 699.266 191.047 701.578 193.328C703.891 195.609 707.312 196.75 711.844 196.75C715.031 196.75 717.609 196.203 719.578 195.109C721.578 194.016 723.047 192.328 723.984 190.047C724.922 187.766 725.391 184.859 725.391 181.328V139.469H739.875ZM783.094 208H768.562V151.562H749.953V139.469H801.703V151.562H783.094V208ZM851.719 208H812.25V139.469H851.719V151.375H826.781V166.422H849.984V178.328H826.781V196H851.719V208ZM886.031 139.469C892.25 139.469 897.375 140.219 901.406 141.719C905.469 143.219 908.484 145.484 910.453 148.516C912.422 151.547 913.406 155.375 913.406 160C913.406 163.125 912.812 165.859 911.625 168.203C910.438 170.547 908.875 172.531 906.938 174.156C905 175.781 902.906 177.109 900.656 178.141L920.812 208H904.688L888.328 181.703H880.594V208H866.062V139.469H886.031ZM885 151.375H880.594V169.891H885.281C890.094 169.891 893.531 169.094 895.594 167.5C897.688 165.875 898.734 163.5 898.734 160.375C898.734 157.125 897.609 154.812 895.359 153.438C893.141 152.062 889.688 151.375 885 151.375Z" fill="black"/>
<path d="M420.078 283.969C420.078 288.031 419.094 291.562 417.125 294.562C415.156 297.562 412.281 299.875 408.5 301.5C404.75 303.125 400.188 303.938 394.812 303.938C392.438 303.938 390.109 303.781 387.828 303.469C385.578 303.156 383.406 302.703 381.312 302.109C379.25 301.484 377.281 300.719 375.406 299.812V286.312C378.656 287.75 382.031 289.047 385.531 290.203C389.031 291.359 392.5 291.938 395.938 291.938C398.312 291.938 400.219 291.625 401.656 291C403.125 290.375 404.188 289.516 404.844 288.422C405.5 287.328 405.828 286.078 405.828 284.672C405.828 282.953 405.25 281.484 404.094 280.266C402.938 279.047 401.344 277.906 399.312 276.844C397.312 275.781 395.047 274.641 392.516 273.422C390.922 272.672 389.188 271.766 387.312 270.703C385.438 269.609 383.656 268.281 381.969 266.719C380.281 265.156 378.891 263.266 377.797 261.047C376.734 258.797 376.203 256.109 376.203 252.984C376.203 248.891 377.141 245.391 379.016 242.484C380.891 239.578 383.562 237.359 387.031 235.828C390.531 234.266 394.656 233.484 399.406 233.484C402.969 233.484 406.359 233.906 409.578 234.75C412.828 235.562 416.219 236.75 419.75 238.312L415.062 249.609C411.906 248.328 409.078 247.344 406.578 246.656C404.078 245.938 401.531 245.578 398.938 245.578C397.125 245.578 395.578 245.875 394.297 246.469C393.016 247.031 392.047 247.844 391.391 248.906C390.734 249.938 390.406 251.141 390.406 252.516C390.406 254.141 390.875 255.516 391.812 256.641C392.781 257.734 394.219 258.797 396.125 259.828C398.062 260.859 400.469 262.062 403.344 263.438C406.844 265.094 409.828 266.828 412.297 268.641C414.797 270.422 416.719 272.531 418.062 274.969C419.406 277.375 420.078 280.375 420.078 283.969ZM494.703 268.641C494.703 273.922 494.047 278.734 492.734 283.078C491.422 287.391 489.422 291.109 486.734 294.234C484.078 297.359 480.703 299.766 476.609 301.453C472.516 303.109 467.672 303.938 462.078 303.938C456.484 303.938 451.641 303.109 447.547 301.453C443.453 299.766 440.062 297.359 437.375 294.234C434.719 291.109 432.734 287.375 431.422 283.031C430.109 278.688 429.453 273.859 429.453 268.547C429.453 261.453 430.609 255.281 432.922 250.031C435.266 244.75 438.859 240.656 443.703 237.75C448.547 234.844 454.703 233.391 462.172 233.391C469.609 233.391 475.719 234.844 480.5 237.75C485.312 240.656 488.875 244.75 491.188 250.031C493.531 255.312 494.703 261.516 494.703 268.641ZM444.688 268.641C444.688 273.422 445.281 277.547 446.469 281.016C447.688 284.453 449.578 287.109 452.141 288.984C454.703 290.828 458.016 291.75 462.078 291.75C466.203 291.75 469.547 290.828 472.109 288.984C474.672 287.109 476.531 284.453 477.688 281.016C478.875 277.547 479.469 273.422 479.469 268.641C479.469 261.453 478.125 255.797 475.438 251.672C472.75 247.547 468.328 245.484 462.172 245.484C458.078 245.484 454.734 246.422 452.141 248.297C449.578 250.141 447.688 252.797 446.469 256.266C445.281 259.703 444.688 263.828 444.688 268.641ZM538.016 245.578C535.234 245.578 532.766 246.125 530.609 247.219C528.484 248.281 526.688 249.828 525.219 251.859C523.781 253.891 522.688 256.344 521.938 259.219C521.188 262.094 520.812 265.328 520.812 268.922C520.812 273.766 521.406 277.906 522.594 281.344C523.812 284.75 525.688 287.359 528.219 289.172C530.75 290.953 534.016 291.844 538.016 291.844C540.797 291.844 543.578 291.531 546.359 290.906C549.172 290.281 552.219 289.391 555.5 288.234V300.422C552.469 301.672 549.484 302.562 546.547 303.094C543.609 303.656 540.312 303.938 536.656 303.938C529.594 303.938 523.781 302.484 519.219 299.578C514.688 296.641 511.328 292.547 509.141 287.297C506.953 282.016 505.859 275.859 505.859 268.828C505.859 263.641 506.562 258.891 507.969 254.578C509.375 250.266 511.438 246.531 514.156 243.375C516.875 240.219 520.234 237.781 524.234 236.062C528.234 234.344 532.828 233.484 538.016 233.484C541.422 233.484 544.828 233.922 548.234 234.797C551.672 235.641 554.953 236.812 558.078 238.312L553.391 250.125C550.828 248.906 548.25 247.844 545.656 246.938C543.062 246.031 540.516 245.578 538.016 245.578ZM570.125 303V234.469H584.656V303H570.125ZM641.375 303H601.906V234.469H641.375V246.375H616.438V261.422H639.641V273.328H616.438V291H641.375V303ZM682.156 303H667.625V246.562H649.016V234.469H700.766V246.562H682.156V303ZM732.641 262.688L746.938 234.469H762.594L739.859 276.328V303H725.422V276.797L702.688 234.469H718.438L732.641 262.688Z" fill="black"/>
<path d="M34.2969 637V605.59H37.9492V637H34.2969ZM64.0742 637H46.5859V605.59H64.0742V608.812H50.2383V618.975H63.2793V622.154H50.2383V633.777H64.0742V637ZM88.5234 637H71.0352V605.59H88.5234V608.812H74.6875V618.975H87.7285V622.154H74.6875V633.777H88.5234V637ZM112.973 637H95.4844V605.59H112.973V608.812H99.1367V618.975H112.178V622.154H99.1367V633.777H112.973V637ZM149.088 628.643C149.088 630.505 148.622 632.094 147.691 633.412C146.775 634.715 145.486 635.711 143.824 636.398C142.163 637.086 140.208 637.43 137.959 637.43C136.77 637.43 135.646 637.372 134.586 637.258C133.526 637.143 132.552 636.979 131.664 636.764C130.776 636.549 129.995 636.284 129.322 635.969V632.467C130.396 632.911 131.707 633.326 133.254 633.713C134.801 634.085 136.419 634.271 138.109 634.271C139.685 634.271 141.017 634.064 142.105 633.648C143.194 633.219 144.018 632.61 144.576 631.822C145.149 631.02 145.436 630.061 145.436 628.943C145.436 627.869 145.199 626.974 144.727 626.258C144.254 625.527 143.466 624.868 142.363 624.281C141.275 623.68 139.785 623.042 137.895 622.369C136.562 621.896 135.388 621.381 134.371 620.822C133.354 620.249 132.502 619.605 131.814 618.889C131.127 618.173 130.604 617.342 130.246 616.396C129.902 615.451 129.73 614.37 129.73 613.152C129.73 611.477 130.153 610.044 130.998 608.855C131.857 607.652 133.039 606.736 134.543 606.105C136.061 605.461 137.801 605.139 139.764 605.139C141.439 605.139 142.986 605.296 144.404 605.611C145.837 605.926 147.147 606.349 148.336 606.879L147.197 610.016C146.066 609.543 144.863 609.149 143.588 608.834C142.327 608.519 141.024 608.361 139.678 608.361C138.331 608.361 137.193 608.562 136.262 608.963C135.345 609.35 134.643 609.901 134.156 610.617C133.669 611.333 133.426 612.186 133.426 613.174C133.426 614.277 133.655 615.193 134.113 615.924C134.586 616.654 135.331 617.306 136.348 617.879C137.379 618.438 138.74 619.025 140.43 619.641C142.277 620.314 143.846 621.03 145.135 621.789C146.424 622.534 147.405 623.451 148.078 624.539C148.751 625.613 149.088 626.981 149.088 628.643ZM162.58 634.508C163.167 634.508 163.769 634.458 164.385 634.357C165.001 634.257 165.502 634.135 165.889 633.992V636.764C165.473 636.95 164.893 637.107 164.148 637.236C163.418 637.365 162.702 637.43 162 637.43C160.754 637.43 159.622 637.215 158.605 636.785C157.589 636.341 156.772 635.596 156.156 634.551C155.555 633.505 155.254 632.059 155.254 630.211V616.246H151.902V614.506L155.275 613.109L156.693 607.996H158.842V613.453H165.738V616.246H158.842V630.104C158.842 631.579 159.178 632.682 159.852 633.412C160.539 634.143 161.449 634.508 162.58 634.508ZM190.102 613.453V637H187.18L186.664 633.691H186.471C185.984 634.508 185.354 635.195 184.58 635.754C183.807 636.312 182.933 636.728 181.959 637C180.999 637.286 179.975 637.43 178.887 637.43C177.025 637.43 175.464 637.129 174.203 636.527C172.943 635.926 171.99 634.995 171.346 633.734C170.715 632.474 170.4 630.855 170.4 628.879V613.453H174.01V628.621C174.01 630.583 174.454 632.051 175.342 633.025C176.23 633.985 177.583 634.465 179.402 634.465C181.15 634.465 182.539 634.135 183.57 633.477C184.616 632.818 185.368 631.851 185.826 630.576C186.285 629.287 186.514 627.712 186.514 625.85V613.453H190.102ZM206.021 637.43C203.042 637.43 200.679 636.413 198.932 634.379C197.199 632.345 196.332 629.323 196.332 625.312C196.332 621.259 197.22 618.201 198.996 616.139C200.772 614.062 203.135 613.023 206.086 613.023C207.332 613.023 208.421 613.188 209.352 613.518C210.283 613.847 211.085 614.291 211.758 614.85C212.431 615.394 212.997 616.017 213.455 616.719H213.713C213.656 616.275 213.598 615.666 213.541 614.893C213.484 614.119 213.455 613.489 213.455 613.002V603.57H217.021V637H214.143L213.605 633.648H213.455C213.011 634.35 212.445 634.988 211.758 635.561C211.085 636.133 210.275 636.592 209.33 636.936C208.399 637.265 207.296 637.43 206.021 637.43ZM206.58 634.465C209.101 634.465 210.884 633.749 211.93 632.316C212.975 630.884 213.498 628.757 213.498 625.936V625.291C213.498 622.298 212.997 619.999 211.994 618.395C211.006 616.79 209.201 615.988 206.58 615.988C204.389 615.988 202.749 616.833 201.66 618.523C200.572 620.199 200.027 622.491 200.027 625.398C200.027 628.292 200.564 630.526 201.639 632.102C202.727 633.677 204.374 634.465 206.58 634.465ZM233.65 613.023C235.656 613.023 237.374 613.467 238.807 614.355C240.239 615.243 241.335 616.49 242.094 618.094C242.853 619.684 243.232 621.546 243.232 623.68V625.893H226.969C227.012 628.657 227.699 630.762 229.031 632.209C230.363 633.656 232.24 634.379 234.66 634.379C236.15 634.379 237.467 634.243 238.613 633.971C239.759 633.699 240.948 633.298 242.18 632.768V635.904C240.991 636.434 239.809 636.821 238.635 637.064C237.475 637.308 236.1 637.43 234.51 637.43C232.247 637.43 230.27 636.971 228.58 636.055C226.904 635.124 225.601 633.763 224.67 631.973C223.739 630.182 223.273 627.991 223.273 625.398C223.273 622.863 223.696 620.672 224.541 618.824C225.4 616.962 226.604 615.53 228.15 614.527C229.712 613.525 231.545 613.023 233.65 613.023ZM233.607 615.945C231.702 615.945 230.184 616.568 229.053 617.814C227.921 619.061 227.248 620.801 227.033 623.035H239.494C239.48 621.632 239.258 620.4 238.828 619.34C238.413 618.266 237.775 617.435 236.916 616.848C236.057 616.246 234.954 615.945 233.607 615.945ZM260.441 613.023C263.234 613.023 265.347 613.711 266.779 615.086C268.212 616.447 268.928 618.638 268.928 621.66V637H265.404V621.896C265.404 619.934 264.953 618.466 264.051 617.492C263.163 616.518 261.795 616.031 259.947 616.031C257.34 616.031 255.507 616.769 254.447 618.244C253.387 619.719 252.857 621.861 252.857 624.668V637H249.291V613.453H252.17L252.707 616.848H252.9C253.402 616.017 254.039 615.322 254.812 614.764C255.586 614.191 256.452 613.761 257.412 613.475C258.372 613.174 259.382 613.023 260.441 613.023ZM283.881 634.508C284.468 634.508 285.07 634.458 285.686 634.357C286.301 634.257 286.803 634.135 287.189 633.992V636.764C286.774 636.95 286.194 637.107 285.449 637.236C284.719 637.365 284.003 637.43 283.301 637.43C282.055 637.43 280.923 637.215 279.906 636.785C278.889 636.341 278.073 635.596 277.457 634.551C276.855 633.505 276.555 632.059 276.555 630.211V616.246H273.203V614.506L276.576 613.109L277.994 607.996H280.143V613.453H287.039V616.246H280.143V630.104C280.143 631.579 280.479 632.682 281.152 633.412C281.84 634.143 282.749 634.508 283.881 634.508ZM303.926 605.59H312.82C316.745 605.59 319.695 606.177 321.672 607.352C323.648 608.526 324.637 610.524 324.637 613.346C324.637 614.563 324.4 615.659 323.928 616.633C323.469 617.592 322.796 618.387 321.908 619.018C321.02 619.648 319.924 620.085 318.621 620.328V620.543C319.996 620.758 321.214 621.152 322.273 621.725C323.333 622.298 324.164 623.1 324.766 624.131C325.367 625.162 325.668 626.473 325.668 628.062C325.668 629.996 325.217 631.629 324.314 632.961C323.426 634.293 322.166 635.303 320.533 635.99C318.9 636.663 316.967 637 314.732 637H303.926V605.59ZM307.578 619.061H313.594C316.329 619.061 318.22 618.609 319.266 617.707C320.326 616.805 320.855 615.487 320.855 613.754C320.855 611.964 320.225 610.674 318.965 609.887C317.719 609.099 315.728 608.705 312.992 608.705H307.578V619.061ZM307.578 622.133V633.885H314.109C316.902 633.885 318.879 633.34 320.039 632.252C321.199 631.149 321.779 629.667 321.779 627.805C321.779 626.616 321.514 625.599 320.984 624.754C320.469 623.909 319.624 623.264 318.449 622.82C317.289 622.362 315.735 622.133 313.787 622.133H307.578ZM342.533 613.023C343.006 613.023 343.5 613.052 344.016 613.109C344.531 613.152 344.99 613.217 345.391 613.303L344.939 616.611C344.553 616.511 344.123 616.432 343.65 616.375C343.178 616.318 342.734 616.289 342.318 616.289C341.373 616.289 340.478 616.482 339.633 616.869C338.802 617.242 338.072 617.786 337.441 618.502C336.811 619.204 336.317 620.056 335.959 621.059C335.601 622.047 335.422 623.15 335.422 624.367V637H331.834V613.453H334.799L335.186 617.793H335.336C335.823 616.919 336.41 616.124 337.098 615.408C337.785 614.678 338.58 614.098 339.482 613.668C340.399 613.238 341.416 613.023 342.533 613.023ZM358.646 613.066C361.454 613.066 363.538 613.697 364.898 614.957C366.259 616.217 366.939 618.23 366.939 620.994V637H364.34L363.652 633.52H363.48C362.822 634.379 362.134 635.102 361.418 635.689C360.702 636.262 359.871 636.699 358.926 637C357.995 637.286 356.849 637.43 355.488 637.43C354.056 637.43 352.781 637.179 351.664 636.678C350.561 636.176 349.688 635.417 349.043 634.4C348.413 633.383 348.098 632.094 348.098 630.533C348.098 628.184 349.029 626.38 350.891 625.119C352.753 623.859 355.589 623.171 359.398 623.057L363.459 622.885V621.445C363.459 619.411 363.022 617.986 362.148 617.17C361.275 616.354 360.043 615.945 358.453 615.945C357.221 615.945 356.047 616.124 354.93 616.482C353.812 616.84 352.753 617.263 351.75 617.75L350.654 615.043C351.714 614.499 352.932 614.033 354.307 613.646C355.682 613.26 357.128 613.066 358.646 613.066ZM363.416 625.398L359.828 625.549C356.892 625.663 354.822 626.143 353.619 626.988C352.416 627.833 351.814 629.029 351.814 630.576C351.814 631.923 352.223 632.918 353.039 633.562C353.855 634.207 354.937 634.529 356.283 634.529C358.374 634.529 360.086 633.949 361.418 632.789C362.75 631.629 363.416 629.889 363.416 627.568V625.398ZM385.438 613.023C388.23 613.023 390.343 613.711 391.775 615.086C393.208 616.447 393.924 618.638 393.924 621.66V637H390.4V621.896C390.4 619.934 389.949 618.466 389.047 617.492C388.159 616.518 386.791 616.031 384.943 616.031C382.337 616.031 380.503 616.769 379.443 618.244C378.383 619.719 377.854 621.861 377.854 624.668V637H374.287V613.453H377.166L377.703 616.848H377.896C378.398 616.017 379.035 615.322 379.809 614.764C380.582 614.191 381.449 613.761 382.408 613.475C383.368 613.174 384.378 613.023 385.438 613.023ZM410.703 637.43C408.583 637.43 406.714 636.993 405.096 636.119C403.477 635.245 402.217 633.913 401.314 632.123C400.412 630.333 399.961 628.077 399.961 625.355C399.961 622.505 400.434 620.178 401.379 618.373C402.339 616.554 403.656 615.208 405.332 614.334C407.008 613.46 408.913 613.023 411.047 613.023C412.221 613.023 413.353 613.145 414.441 613.389C415.544 613.618 416.447 613.911 417.148 614.27L416.074 617.256C415.358 616.969 414.527 616.712 413.582 616.482C412.651 616.253 411.777 616.139 410.961 616.139C409.328 616.139 407.967 616.49 406.879 617.191C405.805 617.893 404.995 618.924 404.451 620.285C403.921 621.646 403.656 623.322 403.656 625.312C403.656 627.217 403.914 628.843 404.43 630.189C404.96 631.536 405.74 632.567 406.771 633.283C407.817 633.985 409.12 634.336 410.682 634.336C411.928 634.336 413.052 634.207 414.055 633.949C415.057 633.677 415.967 633.362 416.783 633.004V636.184C415.995 636.585 415.115 636.893 414.141 637.107C413.181 637.322 412.035 637.43 410.703 637.43ZM425.936 603.57V613.561C425.936 614.133 425.921 614.714 425.893 615.301C425.864 615.874 425.814 616.404 425.742 616.891H425.979C426.465 616.06 427.081 615.365 427.826 614.807C428.585 614.234 429.445 613.804 430.404 613.518C431.364 613.217 432.381 613.066 433.455 613.066C435.346 613.066 436.921 613.367 438.182 613.969C439.456 614.57 440.409 615.501 441.039 616.762C441.684 618.022 442.006 619.655 442.006 621.66V637H438.482V621.896C438.482 619.934 438.031 618.466 437.129 617.492C436.241 616.518 434.873 616.031 433.025 616.031C431.278 616.031 429.882 616.368 428.836 617.041C427.805 617.7 427.06 618.674 426.602 619.963C426.158 621.252 425.936 622.827 425.936 624.689V637H422.369V603.57H425.936Z" fill="black"/>
<path d="M68.2285 437.451V462.395C68.2285 465.049 67.6396 467.448 66.4619 469.593C65.3018 471.72 63.5352 473.407 61.1621 474.655C58.8066 475.903 55.8359 476.527 52.25 476.527C47.1523 476.527 43.2676 475.227 40.5957 472.625C37.9238 470.023 36.5879 466.578 36.5879 462.289V437.451H44.7354V461.05C44.7354 464.231 45.3857 466.464 46.6865 467.747C47.9873 469.03 49.9121 469.672 52.4609 469.672C54.2539 469.672 55.7041 469.364 56.8115 468.749C57.9365 468.134 58.7627 467.185 59.29 465.901C59.8174 464.618 60.0811 462.983 60.0811 460.997V437.451H68.2285ZM93.7783 445.968C96.9248 445.968 99.4561 446.829 101.372 448.552C103.288 450.257 104.246 452.999 104.246 456.778V476H96.2041V458.782C96.2041 456.673 95.8174 455.082 95.0439 454.01C94.2881 452.938 93.0928 452.401 91.458 452.401C88.9971 452.401 87.3184 453.236 86.4219 454.906C85.5254 456.576 85.0771 458.984 85.0771 462.131V476H77.0352V446.521H83.1787L84.2598 450.292H84.708C85.3408 449.272 86.123 448.446 87.0547 447.813C88.0039 447.181 89.0498 446.715 90.1924 446.416C91.3525 446.117 92.5479 445.968 93.7783 445.968ZM120.567 446.521V476H112.525V446.521H120.567ZM116.56 434.973C117.755 434.973 118.783 435.254 119.645 435.816C120.506 436.361 120.937 437.39 120.937 438.901C120.937 440.396 120.506 441.433 119.645 442.013C118.783 442.575 117.755 442.856 116.56 442.856C115.347 442.856 114.31 442.575 113.448 442.013C112.604 441.433 112.183 440.396 112.183 438.901C112.183 437.39 112.604 436.361 113.448 435.816C114.31 435.254 115.347 434.973 116.56 434.973ZM136.045 476L124.812 446.521H133.224L138.919 463.317C139.235 464.302 139.481 465.339 139.657 466.429C139.851 467.519 139.982 468.494 140.053 469.355H140.264C140.316 468.424 140.439 467.431 140.633 466.376C140.844 465.321 141.116 464.302 141.45 463.317L147.119 446.521H155.53L144.298 476H136.045ZM171.931 445.968C174.655 445.968 177.002 446.495 178.971 447.55C180.939 448.587 182.46 450.099 183.532 452.085C184.604 454.071 185.141 456.497 185.141 459.362V463.265H166.13C166.218 465.532 166.895 467.316 168.16 468.617C169.443 469.9 171.219 470.542 173.486 470.542C175.367 470.542 177.09 470.349 178.654 469.962C180.219 469.575 181.827 468.995 183.479 468.222V474.444C182.021 475.165 180.491 475.692 178.892 476.026C177.31 476.36 175.385 476.527 173.117 476.527C170.164 476.527 167.545 475.982 165.26 474.893C162.992 473.803 161.208 472.142 159.907 469.909C158.624 467.677 157.982 464.864 157.982 461.472C157.982 458.026 158.562 455.161 159.723 452.876C160.9 450.573 162.535 448.851 164.627 447.708C166.719 446.548 169.153 445.968 171.931 445.968ZM171.983 451.689C170.419 451.689 169.118 452.19 168.081 453.192C167.062 454.194 166.473 455.768 166.314 457.912H177.6C177.582 456.717 177.362 455.653 176.94 454.722C176.536 453.79 175.921 453.052 175.095 452.507C174.286 451.962 173.249 451.689 171.983 451.689ZM208.133 445.968C208.537 445.968 209.003 445.994 209.53 446.047C210.075 446.082 210.515 446.135 210.849 446.205L210.242 453.746C209.979 453.658 209.601 453.597 209.108 453.562C208.634 453.509 208.221 453.482 207.869 453.482C206.832 453.482 205.821 453.614 204.837 453.878C203.87 454.142 203 454.572 202.227 455.17C201.453 455.75 200.838 456.523 200.381 457.49C199.941 458.439 199.722 459.608 199.722 460.997V476H191.68V446.521H197.771L198.957 451.479H199.353C199.933 450.477 200.653 449.562 201.515 448.736C202.394 447.893 203.387 447.225 204.494 446.732C205.619 446.223 206.832 445.968 208.133 445.968ZM236.768 467.246C236.768 469.25 236.293 470.946 235.344 472.335C234.412 473.706 233.015 474.752 231.151 475.473C229.288 476.176 226.968 476.527 224.19 476.527C222.134 476.527 220.367 476.396 218.891 476.132C217.432 475.868 215.955 475.429 214.461 474.813V468.169C216.061 468.89 217.774 469.487 219.603 469.962C221.448 470.419 223.065 470.647 224.454 470.647C226.019 470.647 227.135 470.419 227.803 469.962C228.488 469.487 228.831 468.872 228.831 468.116C228.831 467.624 228.69 467.185 228.409 466.798C228.146 466.394 227.565 465.945 226.669 465.453C225.772 464.943 224.366 464.284 222.45 463.476C220.604 462.702 219.084 461.92 217.889 461.129C216.711 460.338 215.832 459.406 215.252 458.334C214.689 457.244 214.408 455.864 214.408 454.194C214.408 451.47 215.463 449.422 217.572 448.051C219.699 446.662 222.538 445.968 226.089 445.968C227.917 445.968 229.657 446.152 231.31 446.521C232.979 446.891 234.693 447.479 236.451 448.288L234.025 454.089C232.566 453.456 231.187 452.938 229.886 452.533C228.603 452.129 227.293 451.927 225.957 451.927C224.779 451.927 223.892 452.085 223.294 452.401C222.696 452.718 222.397 453.201 222.397 453.852C222.397 454.326 222.547 454.748 222.846 455.117C223.162 455.486 223.76 455.899 224.639 456.356C225.535 456.796 226.845 457.367 228.567 458.07C230.237 458.756 231.688 459.477 232.918 460.232C234.148 460.971 235.098 461.894 235.766 463.001C236.434 464.091 236.768 465.506 236.768 467.246ZM251.085 446.521V476H243.043V446.521H251.085ZM247.077 434.973C248.272 434.973 249.301 435.254 250.162 435.816C251.023 436.361 251.454 437.39 251.454 438.901C251.454 440.396 251.023 441.433 250.162 442.013C249.301 442.575 248.272 442.856 247.077 442.856C245.864 442.856 244.827 442.575 243.966 442.013C243.122 441.433 242.7 440.396 242.7 438.901C242.7 437.39 243.122 436.361 243.966 435.816C244.827 435.254 245.864 434.973 247.077 434.973ZM268.883 476.527C265.596 476.527 262.915 475.244 260.841 472.678C258.784 470.094 257.756 466.306 257.756 461.313C257.756 456.269 258.802 452.454 260.894 449.87C262.985 447.269 265.719 445.968 269.094 445.968C270.5 445.968 271.739 446.161 272.812 446.548C273.884 446.935 274.807 447.453 275.58 448.104C276.371 448.754 277.039 449.483 277.584 450.292H277.848C277.742 449.729 277.61 448.903 277.452 447.813C277.312 446.706 277.241 445.572 277.241 444.412V434.973H285.31V476H279.14L277.584 472.177H277.241C276.731 472.985 276.09 473.724 275.316 474.392C274.561 475.042 273.655 475.561 272.601 475.947C271.546 476.334 270.307 476.527 268.883 476.527ZM271.704 470.12C273.901 470.12 275.448 469.47 276.345 468.169C277.259 466.851 277.742 464.873 277.795 462.236V461.366C277.795 458.501 277.355 456.312 276.477 454.801C275.598 453.271 273.963 452.507 271.572 452.507C269.797 452.507 268.408 453.271 267.406 454.801C266.404 456.33 265.903 458.536 265.903 461.419C265.903 464.302 266.404 466.473 267.406 467.932C268.426 469.391 269.858 470.12 271.704 470.12ZM305.797 445.915C309.752 445.915 312.784 446.776 314.894 448.499C317.003 450.222 318.058 452.841 318.058 456.356V476H312.441L310.886 471.992H310.675C309.831 473.047 308.97 473.908 308.091 474.576C307.212 475.244 306.201 475.736 305.059 476.053C303.916 476.369 302.527 476.527 300.893 476.527C299.152 476.527 297.588 476.193 296.199 475.525C294.828 474.857 293.747 473.838 292.956 472.467C292.165 471.078 291.77 469.32 291.77 467.193C291.77 464.064 292.868 461.762 295.065 460.285C297.263 458.791 300.559 457.965 304.953 457.807L310.068 457.648V456.356C310.068 454.81 309.664 453.676 308.855 452.955C308.047 452.234 306.922 451.874 305.48 451.874C304.057 451.874 302.659 452.076 301.288 452.48C299.917 452.885 298.546 453.395 297.175 454.01L294.512 448.578C296.076 447.752 297.825 447.102 299.759 446.627C301.71 446.152 303.723 445.915 305.797 445.915ZM310.068 462.342L306.957 462.447C304.355 462.518 302.545 462.983 301.525 463.845C300.523 464.706 300.022 465.84 300.022 467.246C300.022 468.477 300.383 469.355 301.104 469.883C301.824 470.393 302.765 470.647 303.925 470.647C305.647 470.647 307.098 470.138 308.275 469.118C309.471 468.099 310.068 466.648 310.068 464.768V462.342ZM335.697 476.527C332.41 476.527 329.729 475.244 327.655 472.678C325.599 470.094 324.57 466.306 324.57 461.313C324.57 456.269 325.616 452.454 327.708 449.87C329.8 447.269 332.533 445.968 335.908 445.968C337.314 445.968 338.554 446.161 339.626 446.548C340.698 446.935 341.621 447.453 342.395 448.104C343.186 448.754 343.854 449.483 344.398 450.292H344.662C344.557 449.729 344.425 448.903 344.267 447.813C344.126 446.706 344.056 445.572 344.056 444.412V434.973H352.124V476H345.954L344.398 472.177H344.056C343.546 472.985 342.904 473.724 342.131 474.392C341.375 475.042 340.47 475.561 339.415 475.947C338.36 476.334 337.121 476.527 335.697 476.527ZM338.519 470.12C340.716 470.12 342.263 469.47 343.159 468.169C344.073 466.851 344.557 464.873 344.609 462.236V461.366C344.609 458.501 344.17 456.312 343.291 454.801C342.412 453.271 340.777 452.507 338.387 452.507C336.611 452.507 335.223 453.271 334.221 454.801C333.219 456.33 332.718 458.536 332.718 461.419C332.718 464.302 333.219 466.473 334.221 467.932C335.24 469.391 336.673 470.12 338.519 470.12ZM409.394 476H399.005L382.235 446.838H381.998C382.068 448.051 382.13 449.272 382.183 450.503C382.235 451.733 382.288 452.964 382.341 454.194C382.394 455.407 382.446 456.629 382.499 457.859V476H375.195V437.451H385.505L402.248 466.323H402.433C402.397 465.128 402.354 463.941 402.301 462.764C402.248 461.586 402.195 460.408 402.143 459.23C402.107 458.053 402.072 456.875 402.037 455.697V437.451H409.394V476ZM430.566 445.915C434.521 445.915 437.554 446.776 439.663 448.499C441.772 450.222 442.827 452.841 442.827 456.356V476H437.211L435.655 471.992H435.444C434.601 473.047 433.739 473.908 432.86 474.576C431.981 475.244 430.971 475.736 429.828 476.053C428.686 476.369 427.297 476.527 425.662 476.527C423.922 476.527 422.357 476.193 420.969 475.525C419.598 474.857 418.517 473.838 417.726 472.467C416.935 471.078 416.539 469.32 416.539 467.193C416.539 464.064 417.638 461.762 419.835 460.285C422.032 458.791 425.328 457.965 429.723 457.807L434.838 457.648V456.356C434.838 454.81 434.434 453.676 433.625 452.955C432.816 452.234 431.691 451.874 430.25 451.874C428.826 451.874 427.429 452.076 426.058 452.48C424.687 452.885 423.315 453.395 421.944 454.01L419.281 448.578C420.846 447.752 422.595 447.102 424.528 446.627C426.479 446.152 428.492 445.915 430.566 445.915ZM434.838 462.342L431.727 462.447C429.125 462.518 427.314 462.983 426.295 463.845C425.293 464.706 424.792 465.84 424.792 467.246C424.792 468.477 425.152 469.355 425.873 469.883C426.594 470.393 427.534 470.647 428.694 470.647C430.417 470.647 431.867 470.138 433.045 469.118C434.24 468.099 434.838 466.648 434.838 464.768V462.342ZM463.104 476.527C460.186 476.527 457.698 476 455.642 474.945C453.585 473.873 452.021 472.221 450.948 469.988C449.876 467.756 449.34 464.899 449.34 461.419C449.34 457.815 449.946 454.88 451.159 452.612C452.39 450.327 454.086 448.648 456.248 447.576C458.428 446.504 460.95 445.968 463.815 445.968C465.854 445.968 467.612 446.17 469.089 446.574C470.583 446.961 471.884 447.427 472.991 447.972L470.618 454.194C469.353 453.685 468.175 453.271 467.085 452.955C465.995 452.621 464.905 452.454 463.815 452.454C462.409 452.454 461.24 452.788 460.309 453.456C459.377 454.106 458.683 455.091 458.226 456.409C457.769 457.728 457.54 459.38 457.54 461.366C457.54 463.317 457.786 464.935 458.278 466.218C458.771 467.501 459.482 468.459 460.414 469.092C461.346 469.707 462.479 470.015 463.815 470.015C465.485 470.015 466.971 469.795 468.271 469.355C469.572 468.898 470.838 468.266 472.068 467.457V474.339C470.838 475.112 469.546 475.666 468.192 476C466.856 476.352 465.16 476.527 463.104 476.527ZM486.966 446.521V476H478.924V446.521H486.966ZM482.958 434.973C484.153 434.973 485.182 435.254 486.043 435.816C486.904 436.361 487.335 437.39 487.335 438.901C487.335 440.396 486.904 441.433 486.043 442.013C485.182 442.575 484.153 442.856 482.958 442.856C481.745 442.856 480.708 442.575 479.847 442.013C479.003 441.433 478.581 440.396 478.581 438.901C478.581 437.39 479.003 436.361 479.847 435.816C480.708 435.254 481.745 434.973 482.958 434.973ZM522.219 461.208C522.219 463.669 521.885 465.849 521.217 467.747C520.566 469.646 519.608 471.254 518.343 472.572C517.095 473.873 515.583 474.857 513.808 475.525C512.05 476.193 510.063 476.527 507.849 476.527C505.774 476.527 503.867 476.193 502.127 475.525C500.404 474.857 498.901 473.873 497.618 472.572C496.353 471.254 495.368 469.646 494.665 467.747C493.979 465.849 493.637 463.669 493.637 461.208C493.637 457.938 494.217 455.17 495.377 452.902C496.537 450.635 498.189 448.912 500.334 447.734C502.479 446.557 505.036 445.968 508.007 445.968C510.767 445.968 513.21 446.557 515.337 447.734C517.481 448.912 519.16 450.635 520.373 452.902C521.604 455.17 522.219 457.938 522.219 461.208ZM501.837 461.208C501.837 463.142 502.048 464.768 502.47 466.086C502.892 467.404 503.551 468.397 504.447 469.065C505.344 469.733 506.513 470.067 507.954 470.067C509.378 470.067 510.529 469.733 511.408 469.065C512.305 468.397 512.955 467.404 513.359 466.086C513.781 464.768 513.992 463.142 513.992 461.208C513.992 459.257 513.781 457.64 513.359 456.356C512.955 455.056 512.305 454.08 511.408 453.43C510.512 452.779 509.343 452.454 507.901 452.454C505.774 452.454 504.228 453.184 503.261 454.643C502.312 456.102 501.837 458.29 501.837 461.208ZM545.606 445.968C548.753 445.968 551.284 446.829 553.2 448.552C555.116 450.257 556.074 452.999 556.074 456.778V476H548.032V458.782C548.032 456.673 547.646 455.082 546.872 454.01C546.116 452.938 544.921 452.401 543.286 452.401C540.825 452.401 539.146 453.236 538.25 454.906C537.354 456.576 536.905 458.984 536.905 462.131V476H528.863V446.521H535.007L536.088 450.292H536.536C537.169 449.272 537.951 448.446 538.883 447.813C539.832 447.181 540.878 446.715 542.021 446.416C543.181 446.117 544.376 445.968 545.606 445.968ZM576.43 445.915C580.385 445.915 583.417 446.776 585.526 448.499C587.636 450.222 588.69 452.841 588.69 456.356V476H583.074L581.519 471.992H581.308C580.464 473.047 579.603 473.908 578.724 474.576C577.845 475.244 576.834 475.736 575.691 476.053C574.549 476.369 573.16 476.527 571.525 476.527C569.785 476.527 568.221 476.193 566.832 475.525C565.461 474.857 564.38 473.838 563.589 472.467C562.798 471.078 562.402 469.32 562.402 467.193C562.402 464.064 563.501 461.762 565.698 460.285C567.896 458.791 571.191 457.965 575.586 457.807L580.701 457.648V456.356C580.701 454.81 580.297 453.676 579.488 452.955C578.68 452.234 577.555 451.874 576.113 451.874C574.689 451.874 573.292 452.076 571.921 452.48C570.55 452.885 569.179 453.395 567.808 454.01L565.145 448.578C566.709 447.752 568.458 447.102 570.392 446.627C572.343 446.152 574.355 445.915 576.43 445.915ZM580.701 462.342L577.59 462.447C574.988 462.518 573.178 462.983 572.158 463.845C571.156 464.706 570.655 465.84 570.655 467.246C570.655 468.477 571.016 469.355 571.736 469.883C572.457 470.393 573.397 470.647 574.558 470.647C576.28 470.647 577.73 470.138 578.908 469.118C580.104 468.099 580.701 466.648 580.701 464.768V462.342ZM605.038 476H596.996V434.973H605.038V476ZM636.863 476.527C633.576 476.527 630.896 475.244 628.821 472.678C626.765 470.094 625.736 466.306 625.736 461.313C625.736 456.269 626.782 452.454 628.874 449.87C630.966 447.269 633.699 445.968 637.074 445.968C638.48 445.968 639.72 446.161 640.792 446.548C641.864 446.935 642.787 447.453 643.561 448.104C644.352 448.754 645.02 449.483 645.564 450.292H645.828C645.723 449.729 645.591 448.903 645.433 447.813C645.292 446.706 645.222 445.572 645.222 444.412V434.973H653.29V476H647.12L645.564 472.177H645.222C644.712 472.985 644.07 473.724 643.297 474.392C642.541 475.042 641.636 475.561 640.581 475.947C639.526 476.334 638.287 476.527 636.863 476.527ZM639.685 470.12C641.882 470.12 643.429 469.47 644.325 468.169C645.239 466.851 645.723 464.873 645.775 462.236V461.366C645.775 458.501 645.336 456.312 644.457 454.801C643.578 453.271 641.943 452.507 639.553 452.507C637.777 452.507 636.389 453.271 635.387 454.801C634.385 456.33 633.884 458.536 633.884 461.419C633.884 464.302 634.385 466.473 635.387 467.932C636.406 469.391 637.839 470.12 639.685 470.12ZM673.856 445.968C676.581 445.968 678.928 446.495 680.896 447.55C682.865 448.587 684.386 450.099 685.458 452.085C686.53 454.071 687.066 456.497 687.066 459.362V463.265H668.056C668.144 465.532 668.82 467.316 670.086 468.617C671.369 469.9 673.145 470.542 675.412 470.542C677.293 470.542 679.016 470.349 680.58 469.962C682.145 469.575 683.753 468.995 685.405 468.222V474.444C683.946 475.165 682.417 475.692 680.817 476.026C679.235 476.36 677.311 476.527 675.043 476.527C672.09 476.527 669.471 475.982 667.186 474.893C664.918 473.803 663.134 472.142 661.833 469.909C660.55 467.677 659.908 464.864 659.908 461.472C659.908 458.026 660.488 455.161 661.648 452.876C662.826 450.573 664.461 448.851 666.553 447.708C668.645 446.548 671.079 445.968 673.856 445.968ZM673.909 451.689C672.345 451.689 671.044 452.19 670.007 453.192C668.987 454.194 668.398 455.768 668.24 457.912H679.525C679.508 456.717 679.288 455.653 678.866 454.722C678.462 453.79 677.847 453.052 677.021 452.507C676.212 451.962 675.175 451.689 673.909 451.689ZM731.021 465.295C731.021 467.58 730.467 469.566 729.359 471.254C728.252 472.941 726.635 474.242 724.508 475.156C722.398 476.07 719.832 476.527 716.809 476.527C715.473 476.527 714.163 476.439 712.88 476.264C711.614 476.088 710.393 475.833 709.215 475.499C708.055 475.147 706.947 474.717 705.893 474.207V466.613C707.721 467.422 709.619 468.151 711.588 468.802C713.557 469.452 715.508 469.777 717.441 469.777C718.777 469.777 719.85 469.602 720.658 469.25C721.484 468.898 722.082 468.415 722.451 467.8C722.82 467.185 723.005 466.481 723.005 465.69C723.005 464.724 722.68 463.897 722.029 463.212C721.379 462.526 720.482 461.885 719.34 461.287C718.215 460.689 716.94 460.048 715.517 459.362C714.62 458.94 713.645 458.431 712.59 457.833C711.535 457.218 710.533 456.471 709.584 455.592C708.635 454.713 707.853 453.649 707.237 452.401C706.64 451.136 706.341 449.624 706.341 447.866C706.341 445.563 706.868 443.595 707.923 441.96C708.978 440.325 710.48 439.077 712.432 438.216C714.4 437.337 716.721 436.897 719.393 436.897C721.396 436.897 723.304 437.135 725.114 437.609C726.942 438.066 728.85 438.734 730.836 439.613L728.199 445.968C726.424 445.247 724.833 444.693 723.427 444.307C722.021 443.902 720.588 443.7 719.129 443.7C718.109 443.7 717.239 443.867 716.519 444.201C715.798 444.518 715.253 444.975 714.884 445.572C714.515 446.152 714.33 446.829 714.33 447.603C714.33 448.517 714.594 449.29 715.121 449.923C715.666 450.538 716.475 451.136 717.547 451.716C718.637 452.296 719.99 452.973 721.607 453.746C723.576 454.678 725.255 455.653 726.644 456.673C728.05 457.675 729.131 458.861 729.887 460.232C730.643 461.586 731.021 463.273 731.021 465.295ZM749.451 445.915C753.406 445.915 756.438 446.776 758.548 448.499C760.657 450.222 761.712 452.841 761.712 456.356V476H756.096L754.54 471.992H754.329C753.485 473.047 752.624 473.908 751.745 474.576C750.866 475.244 749.855 475.736 748.713 476.053C747.57 476.369 746.182 476.527 744.547 476.527C742.807 476.527 741.242 476.193 739.854 475.525C738.482 474.857 737.401 473.838 736.61 472.467C735.819 471.078 735.424 469.32 735.424 467.193C735.424 464.064 736.522 461.762 738.72 460.285C740.917 458.791 744.213 457.965 748.607 457.807L753.723 457.648V456.356C753.723 454.81 753.318 453.676 752.51 452.955C751.701 452.234 750.576 451.874 749.135 451.874C747.711 451.874 746.313 452.076 744.942 452.48C743.571 452.885 742.2 453.395 740.829 454.01L738.166 448.578C739.73 447.752 741.479 447.102 743.413 446.627C745.364 446.152 747.377 445.915 749.451 445.915ZM753.723 462.342L750.611 462.447C748.01 462.518 746.199 462.983 745.18 463.845C744.178 464.706 743.677 465.84 743.677 467.246C743.677 468.477 744.037 469.355 744.758 469.883C745.479 470.393 746.419 470.647 747.579 470.647C749.302 470.647 750.752 470.138 751.93 469.118C753.125 468.099 753.723 466.648 753.723 464.768V462.342ZM786.761 445.968C789.907 445.968 792.438 446.829 794.354 448.552C796.271 450.257 797.229 452.999 797.229 456.778V476H789.187V458.782C789.187 456.673 788.8 455.082 788.026 454.01C787.271 452.938 786.075 452.401 784.44 452.401C781.979 452.401 780.301 453.236 779.404 454.906C778.508 456.576 778.06 458.984 778.06 462.131V476H770.018V446.521H776.161L777.242 450.292H777.69C778.323 449.272 779.105 448.446 780.037 447.813C780.986 447.181 782.032 446.715 783.175 446.416C784.335 446.117 785.53 445.968 786.761 445.968ZM843.767 476L840.972 466.824H826.918L824.123 476H815.316L828.922 437.293H838.915L852.573 476H843.767ZM839.021 459.969L836.226 451.004C836.05 450.406 835.812 449.642 835.514 448.71C835.232 447.761 834.942 446.803 834.644 445.836C834.362 444.852 834.134 443.999 833.958 443.278C833.782 443.999 833.536 444.896 833.22 445.968C832.921 447.022 832.631 448.024 832.35 448.974C832.068 449.923 831.866 450.6 831.743 451.004L828.975 459.969H839.021ZM865.44 488.973C861.327 488.973 858.181 488.252 856.001 486.811C853.839 485.387 852.758 483.383 852.758 480.799C852.758 479.023 853.312 477.538 854.419 476.343C855.526 475.147 857.152 474.295 859.297 473.785C858.471 473.434 857.75 472.862 857.135 472.071C856.52 471.263 856.212 470.41 856.212 469.514C856.212 468.389 856.537 467.457 857.188 466.719C857.838 465.963 858.778 465.225 860.009 464.504C858.462 463.836 857.231 462.764 856.317 461.287C855.421 459.811 854.973 458.07 854.973 456.066C854.973 453.922 855.438 452.103 856.37 450.608C857.319 449.097 858.69 447.945 860.483 447.154C862.294 446.363 864.491 445.968 867.075 445.968C867.62 445.968 868.253 446.003 868.974 446.073C869.694 446.144 870.354 446.223 870.951 446.311C871.566 446.398 871.979 446.469 872.19 446.521H882.474V450.608L877.859 451.795C878.281 452.445 878.598 453.14 878.809 453.878C879.02 454.616 879.125 455.398 879.125 456.225C879.125 459.389 878.018 461.858 875.803 463.634C873.605 465.392 870.547 466.271 866.627 466.271C865.695 466.218 864.816 466.147 863.99 466.06C863.586 466.376 863.278 466.71 863.067 467.062C862.856 467.413 862.751 467.782 862.751 468.169C862.751 468.556 862.909 468.881 863.226 469.145C863.56 469.391 864.052 469.584 864.702 469.725C865.37 469.848 866.196 469.909 867.181 469.909H872.19C875.425 469.909 877.886 470.604 879.573 471.992C881.278 473.381 882.131 475.42 882.131 478.109C882.131 481.555 880.689 484.227 877.807 486.125C874.941 488.023 870.819 488.973 865.44 488.973ZM865.783 483.726C867.699 483.726 869.343 483.541 870.714 483.172C872.103 482.82 873.166 482.311 873.904 481.643C874.643 480.992 875.012 480.21 875.012 479.296C875.012 478.558 874.792 477.969 874.353 477.529C873.931 477.107 873.28 476.809 872.401 476.633C871.54 476.457 870.433 476.369 869.079 476.369H864.913C863.929 476.369 863.041 476.527 862.25 476.844C861.477 477.16 860.861 477.6 860.404 478.162C859.947 478.742 859.719 479.41 859.719 480.166C859.719 481.273 860.246 482.144 861.301 482.776C862.373 483.409 863.867 483.726 865.783 483.726ZM867.075 461.366C868.587 461.366 869.694 460.9 870.397 459.969C871.101 459.037 871.452 457.771 871.452 456.172C871.452 454.396 871.083 453.069 870.345 452.19C869.624 451.294 868.534 450.846 867.075 450.846C865.599 450.846 864.491 451.294 863.753 452.19C863.015 453.069 862.646 454.396 862.646 456.172C862.646 457.771 863.006 459.037 863.727 459.969C864.465 460.9 865.581 461.366 867.075 461.366ZM914.404 446.521V476H908.234L907.153 472.229H906.731C906.099 473.231 905.308 474.049 904.358 474.682C903.409 475.314 902.363 475.78 901.221 476.079C900.078 476.378 898.892 476.527 897.661 476.527C895.552 476.527 893.715 476.158 892.15 475.42C890.586 474.664 889.364 473.495 888.485 471.913C887.624 470.331 887.193 468.274 887.193 465.743V446.521H895.235V463.739C895.235 465.849 895.613 467.439 896.369 468.512C897.125 469.584 898.329 470.12 899.981 470.12C901.616 470.12 902.899 469.751 903.831 469.013C904.763 468.257 905.413 467.158 905.782 465.717C906.169 464.258 906.362 462.482 906.362 460.391V446.521H914.404ZM943.408 467.246C943.408 469.25 942.934 470.946 941.984 472.335C941.053 473.706 939.655 474.752 937.792 475.473C935.929 476.176 933.608 476.527 930.831 476.527C928.774 476.527 927.008 476.396 925.531 476.132C924.072 475.868 922.596 475.429 921.102 474.813V468.169C922.701 468.89 924.415 469.487 926.243 469.962C928.089 470.419 929.706 470.647 931.095 470.647C932.659 470.647 933.775 470.419 934.443 469.962C935.129 469.487 935.472 468.872 935.472 468.116C935.472 467.624 935.331 467.185 935.05 466.798C934.786 466.394 934.206 465.945 933.31 465.453C932.413 464.943 931.007 464.284 929.091 463.476C927.245 462.702 925.725 461.92 924.529 461.129C923.352 460.338 922.473 459.406 921.893 458.334C921.33 457.244 921.049 455.864 921.049 454.194C921.049 451.47 922.104 449.422 924.213 448.051C926.34 446.662 929.179 445.968 932.729 445.968C934.558 445.968 936.298 446.152 937.95 446.521C939.62 446.891 941.334 447.479 943.092 448.288L940.666 454.089C939.207 453.456 937.827 452.938 936.526 452.533C935.243 452.129 933.934 451.927 932.598 451.927C931.42 451.927 930.532 452.085 929.935 452.401C929.337 452.718 929.038 453.201 929.038 453.852C929.038 454.326 929.188 454.748 929.486 455.117C929.803 455.486 930.4 455.899 931.279 456.356C932.176 456.796 933.485 457.367 935.208 458.07C936.878 458.756 938.328 459.477 939.559 460.232C940.789 460.971 941.738 461.894 942.406 463.001C943.074 464.091 943.408 465.506 943.408 467.246ZM962.103 470.12C962.981 470.12 963.834 470.032 964.66 469.856C965.504 469.681 966.339 469.461 967.165 469.197V475.183C966.304 475.569 965.231 475.886 963.948 476.132C962.683 476.396 961.294 476.527 959.782 476.527C958.024 476.527 956.442 476.246 955.036 475.684C953.647 475.104 952.549 474.11 951.74 472.704C950.949 471.28 950.554 469.303 950.554 466.771V452.56H946.704V449.158L951.134 446.469L953.454 440.246H958.596V446.521H966.849V452.56H958.596V466.771C958.596 467.896 958.912 468.74 959.545 469.303C960.195 469.848 961.048 470.12 962.103 470.12ZM981.192 476H973.15V446.521H981.192V476ZM987.547 434.63V435.184C987.037 435.676 986.369 436.282 985.543 437.003C984.717 437.724 983.829 438.479 982.88 439.271C981.931 440.044 980.999 440.791 980.085 441.512C979.171 442.215 978.371 442.804 977.686 443.278H972.333V442.566C972.913 441.898 973.581 441.107 974.337 440.193C975.11 439.262 975.875 438.304 976.631 437.319C977.387 436.335 978.02 435.438 978.529 434.63H987.547ZM1006.4 445.968C1009.55 445.968 1012.08 446.829 1013.99 448.552C1015.91 450.257 1016.87 452.999 1016.87 456.778V476H1008.83V458.782C1008.83 456.673 1008.44 455.082 1007.67 454.01C1006.91 452.938 1005.71 452.401 1004.08 452.401C1001.62 452.401 999.939 453.236 999.043 454.906C998.146 456.576 997.698 458.984 997.698 462.131V476H989.656V446.521H995.8L996.881 450.292H997.329C997.962 449.272 998.744 448.446 999.676 447.813C1000.62 447.181 1001.67 446.715 1002.81 446.416C1003.97 446.117 1005.17 445.968 1006.4 445.968ZM45.5527 550.527C42.2656 550.527 39.585 549.244 37.5107 546.678C35.4541 544.094 34.4258 540.306 34.4258 535.313C34.4258 530.269 35.4717 526.454 37.5635 523.87C39.6553 521.269 42.3887 519.968 45.7637 519.968C47.1699 519.968 48.4092 520.161 49.4814 520.548C50.5537 520.935 51.4766 521.453 52.25 522.104C53.041 522.754 53.709 523.483 54.2539 524.292H54.5176C54.4121 523.729 54.2803 522.903 54.1221 521.813C53.9814 520.706 53.9111 519.572 53.9111 518.412V508.973H61.9795V550H55.8096L54.2539 546.177H53.9111C53.4014 546.985 52.7598 547.724 51.9863 548.392C51.2305 549.042 50.3252 549.561 49.2705 549.947C48.2158 550.334 46.9766 550.527 45.5527 550.527ZM48.374 544.12C50.5713 544.12 52.1182 543.47 53.0146 542.169C53.9287 540.851 54.4121 538.873 54.4648 536.236V535.366C54.4648 532.501 54.0254 530.312 53.1465 528.801C52.2676 527.271 50.6328 526.507 48.2422 526.507C46.4668 526.507 45.0781 527.271 44.0762 528.801C43.0742 530.33 42.5732 532.536 42.5732 535.419C42.5732 538.302 43.0742 540.473 44.0762 541.932C45.0957 543.391 46.5283 544.12 48.374 544.12ZM82.5459 519.968C85.2705 519.968 87.6172 520.495 89.5859 521.55C91.5547 522.587 93.0752 524.099 94.1475 526.085C95.2197 528.071 95.7559 530.497 95.7559 533.362V537.265H76.7451C76.833 539.532 77.5098 541.316 78.7754 542.617C80.0586 543.9 81.834 544.542 84.1016 544.542C85.9824 544.542 87.7051 544.349 89.2695 543.962C90.834 543.575 92.4424 542.995 94.0947 542.222V548.444C92.6357 549.165 91.1064 549.692 89.5068 550.026C87.9248 550.36 86 550.527 83.7324 550.527C80.7793 550.527 78.1602 549.982 75.875 548.893C73.6074 547.803 71.8232 546.142 70.5225 543.909C69.2393 541.677 68.5977 538.864 68.5977 535.472C68.5977 532.026 69.1777 529.161 70.3379 526.876C71.5156 524.573 73.1504 522.851 75.2422 521.708C77.334 520.548 79.7686 519.968 82.5459 519.968ZM82.5986 525.689C81.0342 525.689 79.7334 526.19 78.6963 527.192C77.6768 528.194 77.0879 529.768 76.9297 531.912H88.2148C88.1973 530.717 87.9775 529.653 87.5557 528.722C87.1514 527.79 86.5361 527.052 85.71 526.507C84.9014 525.962 83.8643 525.689 82.5986 525.689ZM140.554 550L137.759 540.824H123.705L120.91 550H112.104L125.709 511.293H135.702L149.36 550H140.554ZM135.808 533.969L133.013 525.004C132.837 524.406 132.6 523.642 132.301 522.71C132.02 521.761 131.729 520.803 131.431 519.836C131.149 518.852 130.921 517.999 130.745 517.278C130.569 517.999 130.323 518.896 130.007 519.968C129.708 521.022 129.418 522.024 129.137 522.974C128.855 523.923 128.653 524.6 128.53 525.004L125.762 533.969H135.808ZM170.059 519.968C170.463 519.968 170.929 519.994 171.456 520.047C172.001 520.082 172.44 520.135 172.774 520.205L172.168 527.746C171.904 527.658 171.526 527.597 171.034 527.562C170.56 527.509 170.146 527.482 169.795 527.482C168.758 527.482 167.747 527.614 166.763 527.878C165.796 528.142 164.926 528.572 164.152 529.17C163.379 529.75 162.764 530.523 162.307 531.49C161.867 532.439 161.647 533.608 161.647 534.997V550H153.605V520.521H159.696L160.883 525.479H161.278C161.858 524.477 162.579 523.562 163.44 522.736C164.319 521.893 165.312 521.225 166.42 520.732C167.545 520.223 168.758 519.968 170.059 519.968ZM190.282 519.968C193.007 519.968 195.354 520.495 197.322 521.55C199.291 522.587 200.812 524.099 201.884 526.085C202.956 528.071 203.492 530.497 203.492 533.362V537.265H184.481C184.569 539.532 185.246 541.316 186.512 542.617C187.795 543.9 189.57 544.542 191.838 544.542C193.719 544.542 195.441 544.349 197.006 543.962C198.57 543.575 200.179 542.995 201.831 542.222V548.444C200.372 549.165 198.843 549.692 197.243 550.026C195.661 550.36 193.736 550.527 191.469 550.527C188.516 550.527 185.896 549.982 183.611 548.893C181.344 547.803 179.56 546.142 178.259 543.909C176.976 541.677 176.334 538.864 176.334 535.472C176.334 532.026 176.914 529.161 178.074 526.876C179.252 524.573 180.887 522.851 182.979 521.708C185.07 520.548 187.505 519.968 190.282 519.968ZM190.335 525.689C188.771 525.689 187.47 526.19 186.433 527.192C185.413 528.194 184.824 529.768 184.666 531.912H195.951C195.934 530.717 195.714 529.653 195.292 528.722C194.888 527.79 194.272 527.052 193.446 526.507C192.638 525.962 191.601 525.689 190.335 525.689ZM227.724 562.973V550.606C227.724 549.868 227.75 549.13 227.803 548.392C227.873 547.636 227.961 546.897 228.066 546.177H227.724C226.968 547.39 225.922 548.418 224.586 549.262C223.268 550.105 221.527 550.527 219.365 550.527C216.043 550.527 213.354 549.244 211.297 546.678C209.258 544.094 208.238 540.306 208.238 535.313C208.238 531.956 208.713 529.144 209.662 526.876C210.611 524.591 211.93 522.868 213.617 521.708C215.322 520.548 217.291 519.968 219.523 519.968C221.686 519.968 223.435 520.39 224.771 521.233C226.124 522.06 227.223 523.079 228.066 524.292H228.277L228.989 520.521H235.792V562.973H227.724ZM222.239 544.226C223.716 544.226 224.885 543.936 225.746 543.355C226.625 542.775 227.258 541.905 227.645 540.745C228.031 539.567 228.242 538.1 228.277 536.342V535.366C228.277 532.501 227.838 530.312 226.959 528.801C226.08 527.271 224.463 526.507 222.107 526.507C220.191 526.507 218.768 527.271 217.836 528.801C216.904 530.33 216.438 532.536 216.438 535.419C216.438 538.354 216.913 540.561 217.862 542.037C218.812 543.496 220.271 544.226 222.239 544.226ZM271.256 520.521V550H265.086L264.005 546.229H263.583C262.95 547.231 262.159 548.049 261.21 548.682C260.261 549.314 259.215 549.78 258.072 550.079C256.93 550.378 255.743 550.527 254.513 550.527C252.403 550.527 250.566 550.158 249.002 549.42C247.438 548.664 246.216 547.495 245.337 545.913C244.476 544.331 244.045 542.274 244.045 539.743V520.521H252.087V537.739C252.087 539.849 252.465 541.439 253.221 542.512C253.977 543.584 255.181 544.12 256.833 544.12C258.468 544.12 259.751 543.751 260.683 543.013C261.614 542.257 262.265 541.158 262.634 539.717C263.021 538.258 263.214 536.482 263.214 534.391V520.521H271.256ZM287.735 520.521V550H279.693V520.521H287.735ZM283.728 508.973C284.923 508.973 285.951 509.254 286.812 509.816C287.674 510.361 288.104 511.39 288.104 512.901C288.104 514.396 287.674 515.433 286.812 516.013C285.951 516.575 284.923 516.856 283.728 516.856C282.515 516.856 281.478 516.575 280.616 516.013C279.772 515.433 279.351 514.396 279.351 512.901C279.351 511.39 279.772 510.361 280.616 509.816C281.478 509.254 282.515 508.973 283.728 508.973ZM312.6 519.968C315.922 519.968 318.603 521.26 320.642 523.844C322.698 526.428 323.727 530.216 323.727 535.208C323.727 538.548 323.243 541.36 322.276 543.646C321.31 545.913 319.974 547.627 318.269 548.787C316.563 549.947 314.604 550.527 312.389 550.527C310.965 550.527 309.743 550.352 308.724 550C307.704 549.631 306.834 549.165 306.113 548.603C305.393 548.022 304.769 547.407 304.241 546.757H303.819C303.96 547.46 304.065 548.181 304.136 548.919C304.206 549.657 304.241 550.378 304.241 551.081V562.973H296.199V520.521H302.738L303.872 524.345H304.241C304.769 523.554 305.41 522.824 306.166 522.156C306.922 521.488 307.827 520.961 308.882 520.574C309.954 520.17 311.193 519.968 312.6 519.968ZM310.016 526.401C308.609 526.401 307.493 526.691 306.667 527.271C305.841 527.852 305.234 528.722 304.848 529.882C304.479 531.042 304.276 532.51 304.241 534.285V535.155C304.241 537.054 304.417 538.662 304.769 539.98C305.138 541.299 305.744 542.301 306.588 542.986C307.449 543.672 308.627 544.015 310.121 544.015C311.352 544.015 312.362 543.672 313.153 542.986C313.944 542.301 314.533 541.299 314.92 539.98C315.324 538.645 315.526 537.019 315.526 535.103C315.526 532.22 315.078 530.049 314.182 528.59C313.285 527.131 311.896 526.401 310.016 526.401ZM342.447 519.915C346.402 519.915 349.435 520.776 351.544 522.499C353.653 524.222 354.708 526.841 354.708 530.356V550H349.092L347.536 545.992H347.325C346.481 547.047 345.62 547.908 344.741 548.576C343.862 549.244 342.852 549.736 341.709 550.053C340.566 550.369 339.178 550.527 337.543 550.527C335.803 550.527 334.238 550.193 332.85 549.525C331.479 548.857 330.397 547.838 329.606 546.467C328.815 545.078 328.42 543.32 328.42 541.193C328.42 538.064 329.519 535.762 331.716 534.285C333.913 532.791 337.209 531.965 341.604 531.807L346.719 531.648V530.356C346.719 528.81 346.314 527.676 345.506 526.955C344.697 526.234 343.572 525.874 342.131 525.874C340.707 525.874 339.31 526.076 337.938 526.48C336.567 526.885 335.196 527.395 333.825 528.01L331.162 522.578C332.727 521.752 334.476 521.102 336.409 520.627C338.36 520.152 340.373 519.915 342.447 519.915ZM346.719 536.342L343.607 536.447C341.006 536.518 339.195 536.983 338.176 537.845C337.174 538.706 336.673 539.84 336.673 541.246C336.673 542.477 337.033 543.355 337.754 543.883C338.475 544.393 339.415 544.647 340.575 544.647C342.298 544.647 343.748 544.138 344.926 543.118C346.121 542.099 346.719 540.648 346.719 538.768V536.342Z" fill="black"/>
<line x1="30" y1="385.5" x2="953" y2="385.5" stroke="black" stroke-width="5"/>
<line x1="322.554" y1="330.484" x2="380.554" y2="55.4841" stroke="black" stroke-width="5"/>
<path fill-rule="evenodd" clip-rule="evenodd" d="M162.5 303C235.678 303 295 248.155 295 180.5C295 112.845 235.678 58 162.5 58C89.3223 58 30 112.845 30 180.5C30 248.155 89.3223 303 162.5 303ZM115.843 111.5C114.343 108.333 112.942 101.6 119.343 100C122.497 99.2114 127.36 98.5786 132.677 97.8867C140.847 96.8232 150.088 95.6201 155.843 93.5C163.443 90.7002 172.343 88 175.843 87L180.843 90V129.5C204.509 130.833 252.043 144.2 252.843 187C253.009 204.5 238.843 240.1 180.843 242.5C180.343 249.333 181.743 262.4 191.343 260H203.343C205.343 260.167 209.143 261.7 208.343 266.5C207.343 272.5 205.843 273.5 203.343 273.5H118.343C116.676 272.833 113.643 270.5 114.843 266.5C114.676 264.833 115.543 261.5 120.343 261.5H131.843C134.843 261.167 140.943 259.2 141.343 254C141.743 248.8 141.51 244.833 141.343 243.5C122.51 241.667 82.6431 231.1 73.8428 203.5C70.3428 192.667 67.2427 167.6 82.8428 154C102.343 137 115.343 133.5 134.843 131V146C126.343 148.167 109.243 156.7 108.843 173.5C108.795 175.5 108.743 177.364 108.694 179.112C108.229 195.72 108.057 201.881 114.843 215C120.843 226.6 152.343 229.833 167.343 230C179.343 229.667 204.843 225.3 210.843 210.5C218.343 192 215.343 164.5 207.343 157.5C199.343 150.5 192.843 147.5 180.843 146V222.5C175.571 223.833 160.292 225.7 141.343 222.5V122C141.343 119.5 139.143 114.4 130.343 114C124.584 113.738 123.347 113.888 122.185 113.659C121.127 113.451 120.131 112.93 115.843 111.5Z" fill="#FFA300"/>
<path d="M240.057 296.812V294.545H253.565V296.812H248.119V312H245.494V296.812H240.057ZM256.55 294.545H259.746L265.303 308.114H265.508L271.065 294.545H274.261V312H271.755V299.369H271.593L266.445 311.974H264.366L259.218 299.361H259.056V312H256.55V294.545Z" fill="#FFA300"/>
</g>
<defs>
<clipPath id="clip0_39_90">
<rect width="1035" height="667" fill="white"/>
</clipPath>
</defs>
</svg>
